<svg width="30" height="30" viewBox="0 0 40 40" fill="none" xmlns="http://www.w3.org/2000/svg">
<path d="M12.25 0.164698C11.7764 0.415672 11.6424 0.611746 11.3833 1.45094C11.2493 1.8823 11.0974 2.27445 11.0438 2.3215C10.9901 2.36856 10.6059 2.50189 10.186 2.61954C9.76604 2.73718 9.10485 2.98031 8.7117 3.1607L7.9969 3.4901L7.16594 3.07443C5.76313 2.36072 5.37892 2.40778 4.12801 3.48226C3.15408 4.31361 3.01112 4.51753 3.01112 5.07437C3.01112 5.42731 3.0826 5.58417 3.50255 6.22729L3.98505 6.98021L3.60977 7.63901C3.40427 7.99979 3.11834 8.61154 2.98432 8.99584C2.84136 9.3723 2.7252 9.69386 2.7252 9.7017C2.71626 9.70955 2.31419 9.81151 1.82276 9.92915C0.178702 10.3056 0 10.5331 0 12.1801C0 12.9173 0.0357403 13.3408 0.125091 13.5134C0.294858 13.8741 0.732677 14.1722 1.30452 14.3133C1.56364 14.3839 2.00146 14.4859 2.25164 14.5486L2.7252 14.6663L2.93964 15.2937C3.0558 15.631 3.34172 16.2506 3.57403 16.6584L3.99398 17.4035L3.55616 18.0544C3.00219 18.8936 2.91284 19.176 3.04686 19.6622C3.14515 19.9838 3.28811 20.1563 4.05653 20.8308C4.82494 21.5053 5.02152 21.6308 5.38785 21.7171C5.94183 21.8347 6.26349 21.7563 7.22848 21.27L7.97009 20.8936L8.81892 21.2622C9.29248 21.4661 9.98942 21.7092 10.3736 21.8112L11.0795 21.9916L11.2046 22.3837C11.2761 22.6033 11.3922 22.9876 11.4726 23.2308C11.5531 23.4739 11.7228 23.7876 11.8569 23.9288C12.2411 24.3288 12.5359 24.3915 13.9119 24.3915C15.8062 24.3837 16.0385 24.2425 16.4852 22.7837L16.7265 21.9994L17.4413 21.8033C17.8434 21.7014 18.5403 21.4504 19.0049 21.2543L19.8448 20.8936L20.6936 21.3171C21.4263 21.6857 21.605 21.7484 22.0071 21.7484C22.6415 21.7484 22.8738 21.623 23.8209 20.7681C25.0361 19.6779 25.0986 19.3328 24.3034 18.1172L23.8299 17.4035L24.2498 16.6349C24.4821 16.2035 24.768 15.5996 24.8842 15.2859C25.0004 14.9643 25.1433 14.682 25.2148 14.6506C25.2773 14.6192 25.7062 14.5094 26.1619 14.3996C27.663 14.031 27.7881 13.8663 27.7881 12.1879C27.7881 10.5801 27.6362 10.3448 26.4121 10.039C24.9646 9.67033 25.1165 9.76445 24.8485 9.01937C24.7144 8.65075 24.4374 8.05469 24.2319 7.69391C24.0264 7.33314 23.8567 7.01158 23.8567 6.98021C23.8567 6.94099 24.0622 6.61159 24.3124 6.23513C25.0986 5.06653 25.0361 4.7136 23.8209 3.61559C22.99 2.86267 22.5075 2.59601 22.0071 2.58817C21.7569 2.58817 20.7205 3.00384 20.0414 3.37246C19.8627 3.47442 19.7644 3.44304 18.9602 3.1058C18.4688 2.90188 17.7719 2.65091 17.4055 2.54895C16.6729 2.35288 16.7801 2.48621 16.3601 1.20781C16.0027 0.133326 15.7347 -3.8147e-06 13.8762 -3.8147e-06C12.6967 -3.8147e-06 12.518 0.0156822 12.25 0.164698ZM15.0645 0.972521C15.1807 1.05095 15.3326 1.41172 15.547 2.08622C15.9044 3.23129 15.6989 3.05874 17.2447 3.4901C17.6647 3.60775 18.3795 3.8744 18.8351 4.08616C19.2908 4.29792 19.7465 4.47047 19.8448 4.47047C19.9431 4.47047 20.4435 4.25871 20.9528 3.99989C21.4621 3.74108 21.9535 3.52932 22.0428 3.52932C22.2662 3.52932 23.7673 4.86262 23.7673 5.05869C23.7673 5.13712 23.5261 5.56848 23.2312 6.01553C22.9364 6.45473 22.6951 6.88609 22.6951 6.96452C22.6951 7.05079 22.9095 7.49 23.1776 7.93704C23.4457 8.39193 23.7673 9.07427 23.9013 9.45857C24.2677 10.5566 24.1426 10.4468 25.4203 10.7448C26.2334 10.933 26.5819 11.0507 26.6802 11.1683C26.8499 11.3801 26.8589 13.0036 26.6891 13.2075C26.6176 13.2938 26.153 13.4506 25.456 13.6153C24.8485 13.7643 24.3034 13.9369 24.2498 13.9996C24.1873 14.0702 24.08 14.3447 23.9996 14.6192C23.8299 15.2388 23.3384 16.2584 22.9721 16.7839C22.8202 17.0035 22.6951 17.2623 22.6951 17.3642C22.6951 17.4741 22.9364 17.9211 23.2312 18.3681C23.5261 18.8073 23.7673 19.2466 23.7673 19.3407C23.7673 19.5289 22.2573 20.8622 22.0428 20.8622C21.9714 20.8622 21.4889 20.6504 20.9796 20.3916C20.4792 20.1328 19.9699 19.921 19.8538 19.921C19.7465 19.921 19.1657 20.1328 18.5582 20.3916C17.9595 20.6504 17.1375 20.9406 16.7265 21.0426C16.3244 21.1445 15.9491 21.2622 15.9044 21.3014C15.8598 21.3406 15.6989 21.7955 15.547 22.3131C15.3862 22.8308 15.2164 23.3013 15.1718 23.3484C15.1092 23.419 14.7429 23.4504 13.9387 23.4504C12.9737 23.4504 12.7861 23.4268 12.6699 23.3092C12.5895 23.2386 12.4198 22.8072 12.2857 22.3524C12.1606 21.8975 11.9909 21.4583 11.9283 21.3641C11.8479 21.2543 11.5709 21.1445 11.0348 21.0269C10.6149 20.9249 9.79285 20.6348 9.221 20.3838C8.64916 20.1328 8.08625 19.921 7.97009 19.921C7.85394 19.921 7.34464 20.1328 6.8264 20.3995C6.16521 20.7289 5.81674 20.8622 5.68271 20.8308C5.43253 20.7759 4.02079 19.5132 4.02079 19.3407C4.02079 19.2622 4.24416 18.8779 4.51222 18.4779C5.25383 17.3642 5.24489 17.5054 4.60157 16.3682C4.28884 15.8192 3.94931 15.0741 3.83315 14.6977C3.69019 14.2271 3.57403 13.9918 3.44894 13.9212C3.34172 13.8663 2.84136 13.7251 2.32312 13.6075C1.80489 13.4898 1.31346 13.3408 1.23304 13.2702C1.09901 13.1683 1.07221 13.0036 1.07221 12.1879C1.07221 11.4507 1.09901 11.1997 1.1973 11.1134C1.31346 11.0115 1.66193 10.9174 3.09154 10.5958C3.29704 10.5487 3.50255 10.4625 3.55616 10.4076C3.60084 10.3605 3.72593 10.0311 3.83315 9.68602C3.94037 9.34093 4.28884 8.59585 4.6105 8.02332L5.19128 6.98805L5.01258 6.69002C4.92323 6.52532 4.65518 6.11749 4.4318 5.78024C4.20842 5.44299 4.02079 5.11359 4.02079 5.043C4.02079 4.85477 5.53975 3.52932 5.75419 3.52932C5.86141 3.52932 6.36178 3.74108 6.86214 3.99989C7.37144 4.25871 7.88074 4.47047 7.9969 4.47047C8.11305 4.47047 8.44365 4.35283 8.72957 4.20381C9.39077 3.86656 10.1145 3.5999 11.0974 3.33324C11.562 3.2156 11.9194 3.07443 11.9641 2.996C12.0087 2.92541 12.1517 2.47836 12.2947 1.99994C12.4287 1.52937 12.6163 1.08232 12.7057 1.00389C12.8397 0.886248 13.0273 0.862719 13.8762 0.862719C14.6089 0.862719 14.9395 0.894091 15.0645 0.972521Z" fill="black"/>
<path d="M12.5091 7.4194C11.5352 7.63901 10.731 8.06253 9.9626 8.73702C8.74743 9.80366 8.23813 10.9801 8.34535 12.4703C8.37215 12.8781 8.45257 13.3722 8.51511 13.5683C9.10483 15.1918 10.4808 16.3996 12.3215 16.9094C12.9827 17.0976 14.3229 17.1368 15.0913 16.9878C17.1196 16.6113 18.8262 15.1604 19.3444 13.3722C19.5142 12.784 19.5142 11.6389 19.3444 10.9958C18.8887 9.29387 17.2 7.81155 15.2611 7.41156C14.5552 7.26255 13.1524 7.27039 12.5091 7.4194ZM14.7875 8.27428C16.6014 8.61153 17.9863 9.83503 18.3705 11.4507C18.8441 13.4271 17.4055 15.4349 15.1092 16.0309C14.8322 16.1015 14.2961 16.1564 13.8851 16.1564C10.4451 16.1564 8.30067 12.9644 9.93579 10.2585C10.4898 9.34877 11.7854 8.50173 12.9916 8.27428C13.7064 8.13311 14.037 8.13311 14.7875 8.27428Z" fill="black"/>
<path d="M27.1627 19.5289C26.0101 19.6152 25.6884 19.8975 25.4651 21.0034C25.4025 21.3171 25.3042 21.5994 25.2506 21.6308C25.197 21.6622 24.9111 21.7798 24.6162 21.8739C24.3214 21.9759 23.8031 22.2033 23.4636 22.3759L22.856 22.6818L22.0787 22.3602C21.6587 22.1877 21.1941 22.0386 21.0511 22.0386C20.6044 22.0386 20.2112 22.2739 19.5232 22.9563C18.5225 23.9602 18.4778 24.2974 19.2195 25.2935L19.6483 25.8738L19.3803 26.4307C19.2284 26.7366 19.0408 27.2385 18.9514 27.5522L18.7816 28.1169L18.0132 28.36C16.6998 28.7757 16.5657 28.9718 16.6551 30.2972C16.6908 30.8149 16.7712 31.3482 16.8338 31.4815C17.0036 31.8423 17.352 32.0541 17.9417 32.1639C19.0944 32.3678 19.1033 32.3756 19.2195 32.6893C19.3445 33.0423 19.8896 33.9991 20.113 34.2893L20.2827 34.4932L19.9253 35.1442C19.5232 35.8814 19.4696 36.2892 19.7377 36.6736C20.0236 37.0814 21.3013 38.0225 21.7034 38.1166C22.1948 38.2265 22.445 38.1637 23.2402 37.7167L23.9193 37.3324L24.4018 37.5206C24.6699 37.6304 25.2417 37.8029 25.6795 37.9206C26.1263 38.0304 26.4926 38.1245 26.5015 38.1402C26.5015 38.148 26.6266 38.4461 26.7517 38.8068C27.0376 39.5441 27.3593 39.8892 27.8507 39.9676C28.4047 40.0617 30.022 39.9362 30.3704 39.7794C30.7814 39.599 31.0316 39.1676 31.1835 38.4068L31.2907 37.8186L31.666 37.7245C32.086 37.6147 33.1582 37.152 33.5245 36.9245L33.7658 36.7755L34.4806 37.0971C35.2669 37.4422 35.7404 37.4971 36.1782 37.2931C36.4195 37.1833 37.4202 36.2579 37.7329 35.8422C37.8312 35.7246 37.8848 35.4971 37.8848 35.2461C37.8848 34.8932 37.8312 34.7677 37.4291 34.2344L36.9824 33.6305L37.2236 33.1207C37.3577 32.8384 37.5542 32.3286 37.6615 31.9756L37.858 31.3404L38.5996 31.1208C39.9131 30.7365 40.0918 30.4619 39.9667 29.0502C39.8506 27.7012 39.6361 27.4659 38.3227 27.2385L37.5453 27.113L37.313 26.5719C37.179 26.2817 36.9109 25.7954 36.7233 25.4974L36.3659 24.9484L36.7233 24.3052C37.2772 23.2935 37.1968 22.9092 36.2408 22.172C34.8737 21.1132 34.5252 21.074 33.176 21.8661L32.7025 22.1406L32.1932 21.9367C31.6124 21.7171 30.5313 21.4112 30.299 21.4112C30.1917 21.4112 30.0845 21.2308 29.9058 20.7524C29.4322 19.4897 29.1642 19.372 27.1627 19.5289ZM28.6549 20.4857C28.6906 20.5406 28.8693 20.9406 29.0391 21.372L29.3518 22.1563L30.299 22.3602C30.8261 22.4778 31.5588 22.6974 31.943 22.8543C32.3272 23.0112 32.7025 23.1367 32.7829 23.1367C32.8633 23.1367 33.2922 22.9249 33.73 22.6661C34.1768 22.4073 34.561 22.1955 34.5967 22.1955C34.7129 22.1955 36.0085 23.2465 36.0085 23.3406C36.0085 23.3955 35.8298 23.7641 35.6064 24.1641C35.383 24.5641 35.2043 24.9484 35.2043 25.0111C35.2043 25.0817 35.3294 25.2935 35.4813 25.4895C35.8566 25.9836 36.214 26.6111 36.4552 27.215C36.5714 27.4973 36.7054 27.7718 36.759 27.8189C36.8126 27.8738 37.2415 27.9836 37.7061 28.0699C38.1708 28.1561 38.6175 28.2424 38.6979 28.2738C38.8766 28.3287 38.957 28.7051 38.957 29.4267C38.957 30.0541 38.9392 30.0698 37.8223 30.3835C37.4202 30.5012 37.0539 30.6423 37.0092 30.6894C36.9645 30.7443 36.8305 31.0972 36.7233 31.4894C36.6161 31.8737 36.3659 32.4933 36.1782 32.854C35.9906 33.2148 35.8298 33.5756 35.8298 33.654C35.8298 33.7325 36.071 34.1089 36.3748 34.5011C36.7411 34.9873 36.893 35.2461 36.8394 35.3246C36.6429 35.6304 35.7047 36.4696 35.5617 36.4696C35.4724 36.4696 35.0167 36.3049 34.5431 36.1089L33.6853 35.7402L32.9527 36.1402C32.2379 36.5167 31.5141 36.8147 30.8083 37.0108C30.433 37.1206 30.424 37.1363 30.1917 38.1166C30.0845 38.5794 29.9594 38.9009 29.8701 38.9558C29.7897 39.0107 29.4948 39.0578 29.2089 39.0578C28.9319 39.0578 28.5834 39.0813 28.4405 39.1049C28.0652 39.1676 27.9401 39.0264 27.6095 38.1637C27.4576 37.7559 27.2789 37.3873 27.2253 37.348C27.1627 37.3088 26.8768 37.2304 26.582 37.1755C25.9386 37.0579 24.9647 36.7598 24.3571 36.4932C23.8478 36.2657 23.821 36.2736 22.7667 36.8775C22.3914 37.0892 22.034 37.2539 21.9893 37.2382C21.7928 37.1833 20.6401 36.2187 20.6401 36.1167C20.6401 36.0618 20.8188 35.6853 21.0422 35.2854C21.2656 34.8854 21.4443 34.5246 21.4443 34.4775C21.4443 34.4305 21.2209 34.0775 20.9529 33.6932C20.6848 33.3089 20.3631 32.7286 20.2291 32.3992C20.0951 32.0697 19.9253 31.7482 19.8628 31.6698C19.7824 31.5913 19.4071 31.4894 18.8799 31.4031C18.4153 31.3247 17.9685 31.2227 17.8881 31.1678C17.6737 31.0266 17.5843 29.6777 17.7809 29.4816C17.8524 29.411 18.2991 29.2385 18.7816 29.0973C19.2552 28.9639 19.6662 28.8071 19.693 28.7443C19.7198 28.6816 19.8181 28.3287 19.9253 27.9522C20.0236 27.5758 20.2649 26.9718 20.4614 26.6032C20.658 26.2425 20.8188 25.8895 20.8188 25.8346C20.8188 25.7797 20.5776 25.4033 20.2827 25.0111C19.9879 24.619 19.7466 24.266 19.7466 24.2268C19.7466 24.1092 20.9261 22.9798 21.0511 22.9798C21.1226 22.9798 21.5426 23.1367 21.9804 23.3327C22.4182 23.5288 22.856 23.6857 22.9364 23.6857C23.0258 23.6857 23.276 23.5759 23.4994 23.4425C24.0533 23.1131 24.7771 22.7994 25.4651 22.5876C25.7867 22.4857 26.0905 22.3759 26.1441 22.3367C26.2067 22.2975 26.3228 21.9445 26.4033 21.5445C26.6266 20.5406 26.6534 20.4857 27.0019 20.4465C27.7078 20.3759 28.5834 20.3916 28.6549 20.4857Z" fill="black"/>
<path d="M27.1268 25.6935C25.5363 26.0307 24.1514 27.2464 23.7225 28.666C23.651 28.9248 23.5885 29.411 23.5885 29.764C23.5885 30.9483 24.0084 31.8188 24.9734 32.6737C25.9295 33.5207 26.9213 33.8815 28.3241 33.8815C29.6912 33.8815 30.6919 33.5207 31.639 32.7051C32.5772 31.8894 33.0597 30.8934 33.0597 29.7404C33.0597 27.0111 30.1826 25.0425 27.1268 25.6935ZM29.8609 26.7993C32.2198 27.7719 32.747 30.509 30.8706 32.0698C29.3874 33.3011 27.2608 33.3011 25.7776 32.0698C24.3122 30.8541 24.2229 28.9169 25.5542 27.5836C25.9652 27.1836 26.3316 26.9562 27.0642 26.6895C27.4931 26.5327 27.6808 26.5092 28.4134 26.5248C29.1461 26.5484 29.3427 26.5876 29.8609 26.7993Z" fill="black"/>
</svg>
