<svg width="30" height="30" viewBox="0 0 40 40" fill="none" xmlns="http://www.w3.org/2000/svg">
<path d="M31.4426 14.6257C30.9274 14.6257 30.5152 15.0379 30.5152 15.5531V23.9891C30.5152 26.2836 28.6467 28.1453 26.3591 28.1453H6.01099C3.71651 28.1453 1.85482 26.2767 1.85482 23.9891V15.4157C1.85482 14.9005 1.44264 14.4883 0.92741 14.4883C0.412182 14.4883 0 14.9005 0 15.4157V23.9891C0 27.3072 2.69979 30.0001 6.01099 30.0001H26.3591C29.6771 30.0001 32.37 27.3003 32.37 23.9891V15.5531C32.37 15.0447 31.9579 14.6257 31.4426 14.6257Z" fill="black"/>
<path d="M15.5324 22.6357C15.711 22.8143 15.9515 22.9105 16.185 22.9105C16.4186 22.9105 16.6591 22.8212 16.8377 22.6357L22.7319 16.7415C23.096 16.3774 23.096 15.7935 22.7319 15.4294C22.3678 15.0653 21.7839 15.0653 21.4198 15.4294L17.1125 19.7435V0.92741C17.1125 0.412182 16.7003 0 16.185 0C15.6698 0 15.2576 0.412182 15.2576 0.92741V19.7435L10.9435 15.4294C10.5794 15.0653 9.99544 15.0653 9.63135 15.4294C9.26725 15.7935 9.26725 16.3774 9.63135 16.7415L15.5324 22.6357Z" fill="black"/>
</svg>
