<svg width="30" height="30" viewBox="0 0 30 40" fill="none" xmlns="http://www.w3.org/2000/svg">
<path d="M12.157 0.133472C10.6542 0.453842 9.43564 1.03989 8.23335 2.04007C7.64845 2.52453 6.73861 3.61066 6.67362 3.89977C6.56802 4.36079 7.00669 4.7593 7.48598 4.64209C7.60783 4.61084 7.87591 4.34517 8.17648 3.9701C9.14319 2.75113 10.5486 1.85253 12.157 1.42277C12.9206 1.2196 14.9759 1.2196 15.772 1.42277C16.495 1.6103 17.478 2.04788 18.201 2.51671L18.7696 2.87615L19.5495 2.82927C20.2237 2.78239 20.4268 2.79802 20.9061 2.94648C22.0109 3.26685 22.872 4.08731 23.2051 5.13437C23.3513 5.57976 23.3675 5.86106 23.3675 8.03333C23.3675 10.2915 23.3594 10.44 23.2294 10.4009C23.1482 10.3775 23.002 10.1978 22.8964 9.9868C22.742 9.67425 22.5146 9.46327 21.3529 8.59593C19.7932 7.43166 19.4845 7.25975 18.8833 7.20506C18.5097 7.1738 18.2903 7.22068 17.2749 7.5645C13.8142 8.75221 11.166 9.36169 8.51767 9.58829C7.62408 9.66643 7.2179 9.83053 7.04731 10.19C7.00669 10.2837 6.89296 10.3775 6.79548 10.4009L6.61676 10.4478L6.6655 8.83035C6.69799 7.93956 6.73861 6.99408 6.76298 6.73622C6.8036 6.28302 6.79548 6.25176 6.58426 6.08767C6.12935 5.74385 5.63381 6.00171 5.48758 6.6659C5.43884 6.87687 5.38198 7.97082 5.35761 9.08821C5.31699 11.0573 5.30887 11.1198 5.12202 11.3542C4.61024 12.0028 4.46401 12.8467 4.73209 13.6046C4.96768 14.2766 5.86127 15.0268 6.60864 15.183C6.85234 15.2299 6.86859 15.2534 6.91733 15.6753C7.05543 17.0349 7.28289 17.8007 7.82717 18.8556C8.45268 20.0433 9.41939 21.0904 10.5567 21.8092L11.1822 22.2156V22.6922V23.161L10.3942 23.6768L9.59811 24.1925L7.03918 24.9114C5.63381 25.3099 4.24468 25.7474 3.95223 25.8803C3.24548 26.2006 2.51436 26.9039 2.16505 27.5837C1.93759 28.0369 1.76699 28.7558 0.930265 32.7409C-0.125799 37.8043 -0.150169 37.9996 0.207267 38.781C0.434727 39.2733 0.637816 39.4843 1.1496 39.7421L1.55578 39.9531L5.43072 39.9766L9.30566 40L9.46813 39.8203C9.68747 39.6015 9.68747 39.1795 9.47625 38.9764C9.33003 38.8357 9.20818 38.8201 8.09525 38.8201H6.88484L6.86047 35.929C6.8361 33.0613 6.8361 33.0378 6.65738 32.8659C6.40555 32.6237 5.93438 32.6315 5.73129 32.8737C5.58507 33.0456 5.57694 33.241 5.57694 35.9446V38.8357L3.81413 38.8045C2.35189 38.781 1.99445 38.7498 1.78324 38.6404C1.46642 38.4841 1.27145 38.1481 1.27145 37.7887C1.27145 37.3511 3.12363 28.6073 3.2861 28.2479C3.51356 27.7791 3.95223 27.3259 4.43152 27.068C4.78896 26.8883 9.46813 25.4896 9.50875 25.5521C9.525 25.5677 9.74433 26.1538 9.99616 26.8648C10.646 28.6308 10.7517 28.8496 11.036 29.0527C11.1903 29.1621 11.4503 29.2481 11.6696 29.2715C12.0108 29.3028 12.1327 29.3809 13.0587 30.1623C13.6111 30.6389 14.1798 31.0687 14.326 31.1312C14.6428 31.2641 15.3658 31.2719 15.6664 31.139C15.7883 31.0843 16.365 30.6468 16.9418 30.1623C17.8029 29.4434 18.0466 29.2871 18.2497 29.2871C18.599 29.2871 19.0296 29.0762 19.2164 28.8261C19.2976 28.7167 19.6145 27.951 19.915 27.1383C20.2156 26.3179 20.4837 25.6302 20.5081 25.599C20.5812 25.5287 25.0166 26.7945 25.4634 27.0133C25.9833 27.2633 26.422 27.6853 26.6576 28.1385C26.8038 28.4354 27.1044 29.7247 27.7949 33.0378C28.3067 35.507 28.7291 37.6402 28.7291 37.7887C28.7291 38.1481 28.5341 38.4841 28.2173 38.6404C28.0061 38.7498 27.6487 38.7732 26.2352 38.8045L24.513 38.8357L24.4886 35.9368C24.4642 33.0613 24.4642 33.0378 24.2855 32.8659C24.0337 32.6237 23.5625 32.6315 23.3594 32.8737C23.2132 33.0456 23.2051 33.241 23.2051 35.9368V38.8201H17.3724C11.5884 38.8201 11.5315 38.8201 11.3853 38.9764C11.1903 39.1874 11.1903 39.6249 11.3853 39.8359C11.5315 39.9922 11.5721 39.9922 19.8419 39.9922C29.0459 39.9922 28.5829 40.0156 29.2571 39.4843C29.4359 39.3436 29.6714 39.0623 29.777 38.8592C30.1507 38.1403 30.1345 37.9684 29.1028 32.9362C28.5829 30.4045 28.0873 28.1619 28.0061 27.951C27.6405 27.0367 26.9175 26.2788 26.0158 25.8647C25.7396 25.7396 24.3749 25.3099 22.9695 24.9192L20.4268 24.1925L19.6226 23.6846L18.8184 23.1689V22.7078V22.2546L19.2895 21.9655C21.5316 20.5981 22.9126 18.3946 23.0995 15.8629C23.1401 15.3315 23.1726 15.2221 23.2863 15.2221C23.53 15.2221 24.3749 14.7689 24.6998 14.4642C25.1466 14.0422 25.4147 13.4484 25.4228 12.8467C25.4309 12.2528 25.301 11.8778 24.9516 11.4324L24.6754 11.0964L24.6511 8.09584L24.6267 5.10312L24.4155 4.5874C24.1068 3.82945 23.8143 3.37624 23.2538 2.8449C22.3521 1.97755 21.2229 1.54779 19.8338 1.54779C19.0946 1.54779 19.0296 1.53216 18.6884 1.30556C18.1197 0.930492 16.9012 0.40696 16.1376 0.219425C15.1546 -0.0306168 13.1481 -0.0775032 12.157 0.133472ZM19.1189 8.5803C19.4682 8.78346 21.5966 10.3697 21.7266 10.5181C21.8809 10.7057 21.8647 15.5269 21.7022 16.4255C21.0686 19.9261 17.6648 22.2937 13.993 21.7858C11.8646 21.4889 9.92305 20.098 8.9401 18.1523C8.28209 16.8474 8.24147 16.5661 8.20085 13.5421L8.16024 10.8776L9.16756 10.7838C11.7671 10.5181 15.5689 9.59611 18.2091 8.58812C18.7209 8.39277 18.8021 8.39277 19.1189 8.5803ZM6.87671 12.7998C6.87671 14.0735 6.8361 14.1282 6.2512 13.5421C5.95875 13.2452 5.90189 13.1358 5.90189 12.8701C5.90189 12.6982 5.95875 12.456 6.02374 12.331C6.13747 12.12 6.6655 11.7059 6.81172 11.7059C6.85234 11.7059 6.87671 12.1981 6.87671 12.7998ZM23.4488 11.8231C23.7169 11.9559 24.0581 12.3622 24.123 12.6279C24.2286 13.042 23.8793 13.5968 23.3513 13.8625L23.1238 13.9797V12.8389C23.1238 12.2138 23.1401 11.7059 23.1645 11.7059C23.197 11.7059 23.3188 11.7606 23.4488 11.8231ZM14.6753 23.0907C15.6095 23.1298 16.5762 23.036 17.3399 22.8329C17.6811 22.7391 17.5511 23.2236 16.7306 25.1223L15.9426 26.9508L15.0084 26.9273L14.0661 26.9039L13.2781 25.1067C12.7907 23.9971 12.4901 23.2001 12.482 23.0282V22.7547L13.075 22.9032C13.4243 22.9891 14.0579 23.0673 14.6753 23.0907ZM12.1652 25.8178C12.482 26.5445 12.7582 27.1774 12.7744 27.2243C12.8232 27.3337 11.9133 27.9978 11.8321 27.9119C11.7671 27.8416 10.8004 25.3255 10.7598 25.0989C10.7354 25.0129 11.5071 24.4269 11.564 24.4738C11.5803 24.4894 11.8483 25.0911 12.1652 25.8178ZM19.2733 25.1145C19.2489 25.1692 19.0052 25.8334 18.7209 26.5835C18.4447 27.3415 18.1928 27.9588 18.1685 27.9588C18.136 27.9588 17.9085 27.8181 17.6567 27.6462L17.1936 27.3259L17.3236 27.0367C17.3886 26.8805 17.6729 26.2319 17.941 25.6068L18.4447 24.4581L18.8752 24.7395C19.127 24.8957 19.2976 25.0598 19.2733 25.1145ZM16.5194 28.412L16.7793 28.623L15.9589 29.3028C15.5039 29.6856 15.0734 29.9904 15.0003 29.9904C14.919 29.9904 14.4966 29.6778 14.0417 29.295L13.2293 28.5995L13.5218 28.3964C13.8142 28.201 13.8549 28.1932 15.0409 28.1932C16.2513 28.201 16.2594 28.201 16.5194 28.412Z" fill="black"/>
</svg>
